<mxfile host="app.diagrams.net" agent="Mozilla/5.0 (Windows NT 10.0; Win64; x64) AppleWebKit/537.36 (KHTML, like Gecko) Chrome/127.0.0.0 Safari/537.36" version="24.7.6">
  <diagram name="PÃ¡gina-1" id="XrtL5JR8i-iWcGKqzwai">
    <mxGraphModel dx="1000" dy="618" grid="1" gridSize="10" guides="1" tooltips="1" connect="1" arrows="1" fold="1" page="1" pageScale="1" pageWidth="827" pageHeight="1169" math="0" shadow="0">
      <root>
        <mxCell id="0" />
        <mxCell id="1" parent="0" />
        <mxCell id="sl7k0TZgmtbW0K3ZGWQk-11" style="edgeStyle=orthogonalEdgeStyle;rounded=0;orthogonalLoop=1;jettySize=auto;html=1;" edge="1" parent="1" source="sl7k0TZgmtbW0K3ZGWQk-7" target="sl7k0TZgmtbW0K3ZGWQk-10">
          <mxGeometry relative="1" as="geometry" />
        </mxCell>
        <mxCell id="sl7k0TZgmtbW0K3ZGWQk-7" value="&lt;b&gt;users&lt;/b&gt;" style="sketch=0;outlineConnect=0;gradientColor=none;fontColor=#545B64;strokeColor=none;fillColor=#879196;dashed=0;verticalLabelPosition=bottom;verticalAlign=top;align=center;html=1;fontSize=12;fontStyle=0;aspect=fixed;shape=mxgraph.aws4.illustration_users;pointerEvents=1" vertex="1" parent="1">
          <mxGeometry x="50" y="100" width="90" height="90" as="geometry" />
        </mxCell>
        <mxCell id="sl7k0TZgmtbW0K3ZGWQk-8" value="" style="sketch=0;outlineConnect=0;fontColor=#232F3E;gradientColor=none;fillColor=#C925D1;strokeColor=none;dashed=0;verticalLabelPosition=bottom;verticalAlign=top;align=center;html=1;fontSize=12;fontStyle=0;aspect=fixed;pointerEvents=1;shape=mxgraph.aws4.rds_mariadb_instance_alt;" vertex="1" parent="1">
          <mxGeometry x="750" y="50" width="70" height="70" as="geometry" />
        </mxCell>
        <mxCell id="sl7k0TZgmtbW0K3ZGWQk-9" value="" style="sketch=0;outlineConnect=0;fontColor=#232F3E;gradientColor=none;fillColor=#C925D1;strokeColor=none;dashed=0;verticalLabelPosition=bottom;verticalAlign=top;align=center;html=1;fontSize=12;fontStyle=0;aspect=fixed;pointerEvents=1;shape=mxgraph.aws4.rds_postgresql_instance_alt;" vertex="1" parent="1">
          <mxGeometry x="750" y="180" width="70" height="70" as="geometry" />
        </mxCell>
        <mxCell id="sl7k0TZgmtbW0K3ZGWQk-16" style="edgeStyle=orthogonalEdgeStyle;rounded=0;orthogonalLoop=1;jettySize=auto;html=1;curved=1;" edge="1" parent="1" source="sl7k0TZgmtbW0K3ZGWQk-10" target="sl7k0TZgmtbW0K3ZGWQk-12">
          <mxGeometry relative="1" as="geometry">
            <mxPoint x="310" y="40" as="targetPoint" />
          </mxGeometry>
        </mxCell>
        <mxCell id="sl7k0TZgmtbW0K3ZGWQk-17" style="edgeStyle=orthogonalEdgeStyle;rounded=0;orthogonalLoop=1;jettySize=auto;html=1;curved=1;" edge="1" parent="1" source="sl7k0TZgmtbW0K3ZGWQk-10" target="sl7k0TZgmtbW0K3ZGWQk-13">
          <mxGeometry relative="1" as="geometry" />
        </mxCell>
        <mxCell id="sl7k0TZgmtbW0K3ZGWQk-10" value="&lt;b&gt;GATEWAY&lt;/b&gt;" style="sketch=0;points=[[0,0,0],[0.25,0,0],[0.5,0,0],[0.75,0,0],[1,0,0],[0,1,0],[0.25,1,0],[0.5,1,0],[0.75,1,0],[1,1,0],[0,0.25,0],[0,0.5,0],[0,0.75,0],[1,0.25,0],[1,0.5,0],[1,0.75,0]];outlineConnect=0;fontColor=#232F3E;fillColor=#8C4FFF;strokeColor=#ffffff;dashed=0;verticalLabelPosition=bottom;verticalAlign=top;align=center;html=1;fontSize=12;fontStyle=0;aspect=fixed;shape=mxgraph.aws4.resourceIcon;resIcon=mxgraph.aws4.api_gateway;" vertex="1" parent="1">
          <mxGeometry x="280" y="106" width="78" height="78" as="geometry" />
        </mxCell>
        <mxCell id="sl7k0TZgmtbW0K3ZGWQk-19" style="edgeStyle=orthogonalEdgeStyle;rounded=0;orthogonalLoop=1;jettySize=auto;html=1;" edge="1" parent="1" source="sl7k0TZgmtbW0K3ZGWQk-12" target="sl7k0TZgmtbW0K3ZGWQk-8">
          <mxGeometry relative="1" as="geometry" />
        </mxCell>
        <mxCell id="sl7k0TZgmtbW0K3ZGWQk-12" value="&lt;b&gt;STUDENTS&lt;/b&gt;" style="sketch=0;outlineConnect=0;fontColor=#232F3E;gradientColor=none;fillColor=#8C4FFF;strokeColor=none;dashed=0;verticalLabelPosition=bottom;verticalAlign=top;align=center;html=1;fontSize=12;fontStyle=0;aspect=fixed;pointerEvents=1;shape=mxgraph.aws4.endpoint;" vertex="1" parent="1">
          <mxGeometry x="540" y="50" width="70" height="70" as="geometry" />
        </mxCell>
        <mxCell id="sl7k0TZgmtbW0K3ZGWQk-18" style="edgeStyle=orthogonalEdgeStyle;rounded=0;orthogonalLoop=1;jettySize=auto;html=1;" edge="1" parent="1" source="sl7k0TZgmtbW0K3ZGWQk-13" target="sl7k0TZgmtbW0K3ZGWQk-9">
          <mxGeometry relative="1" as="geometry" />
        </mxCell>
        <mxCell id="sl7k0TZgmtbW0K3ZGWQk-13" value="&lt;b&gt;COURSES&lt;/b&gt;" style="sketch=0;outlineConnect=0;fontColor=#232F3E;gradientColor=none;fillColor=#8C4FFF;strokeColor=none;dashed=0;verticalLabelPosition=bottom;verticalAlign=top;align=center;html=1;fontSize=12;fontStyle=0;aspect=fixed;pointerEvents=1;shape=mxgraph.aws4.endpoint;" vertex="1" parent="1">
          <mxGeometry x="540" y="180" width="70" height="70" as="geometry" />
        </mxCell>
        <mxCell id="sl7k0TZgmtbW0K3ZGWQk-25" style="edgeStyle=orthogonalEdgeStyle;rounded=0;orthogonalLoop=1;jettySize=auto;html=1;" edge="1" parent="1" source="sl7k0TZgmtbW0K3ZGWQk-20" target="sl7k0TZgmtbW0K3ZGWQk-21">
          <mxGeometry relative="1" as="geometry" />
        </mxCell>
        <mxCell id="sl7k0TZgmtbW0K3ZGWQk-20" value="&lt;b&gt;EUREKA&lt;/b&gt;" style="sketch=0;outlineConnect=0;fontColor=#232F3E;gradientColor=none;fillColor=#8C4FFF;strokeColor=none;dashed=0;verticalLabelPosition=bottom;verticalAlign=top;align=center;html=1;fontSize=12;fontStyle=0;aspect=fixed;pointerEvents=1;shape=mxgraph.aws4.endpoint;" vertex="1" parent="1">
          <mxGeometry x="640" y="340" width="70" height="70" as="geometry" />
        </mxCell>
        <mxCell id="sl7k0TZgmtbW0K3ZGWQk-21" value="&lt;b&gt;CONFIG&lt;/b&gt;" style="sketch=0;outlineConnect=0;fontColor=#232F3E;gradientColor=none;fillColor=#8C4FFF;strokeColor=none;dashed=0;verticalLabelPosition=bottom;verticalAlign=top;align=center;html=1;fontSize=12;fontStyle=0;aspect=fixed;pointerEvents=1;shape=mxgraph.aws4.endpoint;" vertex="1" parent="1">
          <mxGeometry x="379" y="340" width="70" height="70" as="geometry" />
        </mxCell>
        <mxCell id="sl7k0TZgmtbW0K3ZGWQk-23" style="edgeStyle=orthogonalEdgeStyle;rounded=0;orthogonalLoop=1;jettySize=auto;html=1;curved=1;" edge="1" parent="1" source="sl7k0TZgmtbW0K3ZGWQk-22" target="sl7k0TZgmtbW0K3ZGWQk-21">
          <mxGeometry relative="1" as="geometry" />
        </mxCell>
        <mxCell id="sl7k0TZgmtbW0K3ZGWQk-24" style="edgeStyle=orthogonalEdgeStyle;rounded=0;orthogonalLoop=1;jettySize=auto;html=1;curved=1;" edge="1" parent="1" source="sl7k0TZgmtbW0K3ZGWQk-22" target="sl7k0TZgmtbW0K3ZGWQk-20">
          <mxGeometry relative="1" as="geometry" />
        </mxCell>
        <mxCell id="sl7k0TZgmtbW0K3ZGWQk-22" value="" style="rounded=1;whiteSpace=wrap;html=1;fillColor=none;" vertex="1" parent="1">
          <mxGeometry x="238" y="10" width="632" height="280" as="geometry" />
        </mxCell>
      </root>
    </mxGraphModel>
  </diagram>
</mxfile>
